name Precision Landing15_filtered_grf.mot
datacolumns 37
datarows 5
range 0.614500 0.616500
endheader
time	1_ground_force_vx	1_ground_force_vy	1_ground_force_vz	1_ground_force_px	1_ground_force_py	1_ground_force_pz	1_ground_torque_x	1_ground_torque_y	1_ground_torque_z	2_ground_force_vx	2_ground_force_vy	2_ground_force_vz	2_ground_force_px	2_ground_force_py	2_ground_force_pz	2_ground_torque_x	2_ground_torque_y	2_ground_torque_z	3_ground_force_vx	3_ground_force_vy	3_ground_force_vz	3_ground_force_px	3_ground_force_py	3_ground_force_pz	3_ground_torque_x	3_ground_torque_y	3_ground_torque_z	4_ground_force_vx	4_ground_force_vy	4_ground_force_vz	4_ground_force_px	4_ground_force_py	4_ground_force_pz	4_ground_torque_x	4_ground_torque_y	4_ground_torque_z
            0.614500	            0.000000	           -0.000000	           -0.000000	            0.103552	            0.000000	            0.319021	           -0.000000	           -0.000000	            0.000000	           -0.000000	           -0.000000	           -0.000000	           -0.151368	            0.000000	            0.304495	           -0.000000	            0.000000	           -0.000000	            5.454268	           -0.235629	           -1.693285	            0.352975	            1.255315	            1.892300	           -0.003734	            0.000161	            0.001159	          -17.874300	            0.658873	           -2.753165	           -0.289452	            1.264795	            1.901988	            0.005084	           -0.000187	            0.000783
            0.615000	            0.000000	           -0.000000	           -0.000000	            0.103552	            0.000000	            0.319021	           -0.000000	           -0.000000	            0.000000	           -0.000000	           -0.000000	           -0.000000	           -0.151368	            0.000000	            0.304495	           -0.000000	            0.000000	           -0.000000	            5.460745	           -0.236347	           -1.724159	            0.352967	            1.255314	            1.892305	           -0.003547	            0.000154	            0.001120	          -17.875916	            0.655029	           -2.758806	           -0.289457	            1.264793	            1.901993	            0.005316	           -0.000195	            0.000820
            0.615500	            0.000000	           -0.000000	           -0.000000	            0.103552	            0.000000	            0.319021	           -0.000000	           -0.000000	           -0.000000	           -0.000000	           -0.000000	           -0.000000	           -0.151368	            0.000000	            0.304495	           -0.000000	            0.000000	           -0.000000	            5.468121	           -0.238144	           -1.755841	            0.352958	            1.255314	            1.892309	           -0.003371	            0.000147	            0.001082	          -17.881900	            0.651685	           -2.763392	           -0.289458	            1.264791	            1.901998	            0.005544	           -0.000202	            0.000857
            0.616000	            0.000000	            0.000000	           -0.000000	            0.103552	            0.000000	            0.319021	           -0.000000	           -0.000000	           -0.000000	           -0.000000	           -0.000000	           -0.000000	           -0.151368	            0.000000	            0.304495	           -0.000000	            0.000000	           -0.000000	            5.476442	           -0.241009	           -1.788075	            0.352949	            1.255314	            1.892314	           -0.003207	            0.000141	            0.001047	          -17.892231	            0.648820	           -2.767037	           -0.289460	            1.264789	            1.902002	            0.005768	           -0.000209	            0.000892
            0.616500	            0.000000	            0.000000	           -0.000000	            0.103552	            0.000000	            0.319021	            0.000000	           -0.000000	           -0.000000	           -0.000000	           -0.000000	           -0.000000	           -0.151368	            0.000000	            0.304495	           -0.000000	            0.000000	           -0.000000	            5.485754	           -0.244912	           -1.820640	            0.352941	            1.255313	            1.892318	           -0.003057	            0.000136	            0.001015	          -17.906868	            0.646393	           -2.769756	           -0.289462	            1.264787	            1.902007	            0.005986	           -0.000216	            0.000926
